<?xml version="1.0" encoding="utf-8"?>
<!-- Generator: Adobe Illustrator 19.1.0, SVG Export Plug-In . SVG Version: 6.00 Build 0)  -->
<svg version="1.1" id="Candidate_1_" xmlns="http://www.w3.org/2000/svg" xmlns:xlink="http://www.w3.org/1999/xlink" x="0px"
	 y="0px" viewBox="0 0 441.7 221.3" style="enable-background:new 0 0 441.7 221.3;" xml:space="preserve">
<style type="text/css">
	.st0{fill-rule:evenodd;clip-rule:evenodd;fill:#26313D;}
	.st1{fill-rule:evenodd;clip-rule:evenodd;fill:#F9AC1A;}
	.st2{fill-rule:evenodd;clip-rule:evenodd;fill:#407DB8;}
	.st3{fill-rule:evenodd;clip-rule:evenodd;fill:url(#SVGID_1_);}
	.st4{clip-path:url(#SVGID_3_);}
	.st5{fill-rule:evenodd;clip-rule:evenodd;fill:#162331;}
	.st6{fill-rule:evenodd;clip-rule:evenodd;fill:#5592C8;}
	.st7{fill-rule:evenodd;clip-rule:evenodd;fill:#88BCE8;}
</style>
<g id="Text_1_">
	<g id="m:_Stroked_in_Illustrator_1.2_center">
		<g>
			<path class="st0" d="M207.6,88.5c-8.1,0-14.7,3.3-20,10c-3.6-6.5-9.9-10-17.9-10c-8.8,0-14,4.6-17.6,9.1v-7.8h-14.8v59.6h14.8
				v-33.1c0-8.6,4.8-14.2,12.2-14.2c7.3,0,11.5,5,11.5,13.8v33.4h14.8v-33.1c0-8.7,4.7-14.2,12.2-14.2c7.4,0,11.5,5,11.5,14v33.3
				h14.8v-37.5C229.1,97.2,221,88.5,207.6,88.5z"/>
		</g>
	</g>
	<g id="Lab">
		<g>
			<path class="st1" d="M258.6,69.2h-14.7v80.1h43.1v-14.5h-28.4V69.2z M404.6,97.4c-5.4-5.8-12-8.8-19.7-8.8c-3.6,0-6.9,0.7-10,2
				c-3.1,1.3-6,3.4-8.7,6V70.5h-14.7v78.8h14.7V143c2.9,2.8,5.8,4.7,8.8,6c2.9,1.2,6.1,1.8,9.5,1.8c7.7,0,14.3-3,19.9-8.9
				c5.6-5.9,8.4-13.3,8.4-22.1C412.7,110.7,410,103.2,404.6,97.4z M393.3,132.3c-3.1,3.3-6.9,4.9-11.5,4.9c-4.7,0-8.6-1.6-11.6-4.9
				c-3.1-3.2-4.6-7.5-4.6-12.8c0-5.1,1.5-9.3,4.6-12.5c3.1-3.2,7-4.8,11.6-4.8c4.6,0,8.5,1.6,11.5,4.9c3,3.2,4.6,7.4,4.6,12.5
				C397.9,124.8,396.4,129,393.3,132.3z M318.5,88.4c-9.7,0-16.3,2-23,5l3.6,10.9c5.5-2.3,10.7-3.6,17.5-3.6
				c9.8,0,15.1,4.1,15.1,12.8v0.5c-4.7-1.5-9.6-2.4-16.4-2.4c-14.9,0-25.3,6.5-25.3,19.6v0.7c0,12.2,10.3,19,21.7,19
				c9.3,0,15.7-2.8,19.8-7.8v6.3h14.7V114c0-9.5-2.7-14.4-7.2-18.8C334.9,90.9,327.6,88.4,318.5,88.4z M332,126.3
				c0,6.4-6.8,13.7-15.8,13.7c-6.5,0-11.3-3.2-11.3-9v-0.2c0-6.2,4.9-9.9,13.6-9.9c5.4,0,10,1,13.4,2.4V126.3z"/>
		</g>
	</g>
</g>
<g>
	<g>
		<path class="st2" d="M85.5,172.5l0-3.8H92l0,3.8c0,1.8-1.5,3.3-3.3,3.3C86.9,175.8,85.5,174.3,85.5,172.5z"/>
		<path class="st2" d="M67.3,172.5l0-3.8h6.6l0,3.8c0,1.8-1.5,3.3-3.3,3.3C68.8,175.8,67.3,174.3,67.3,172.5z"/>
		<path class="st2" d="M49.1,172.5l0-3.8h6.6l0,3.8c0,1.8-1.5,3.3-3.3,3.3C50.6,175.8,49.1,174.3,49.1,172.5z"/>
	</g>
	<path class="st2" d="M98.3,164.6l-3,5H45.6l-2.8-5H98.3z"/>
	<linearGradient id="SVGID_1_" gradientUnits="userSpaceOnUse" x1="37.4296" y1="87.5518" x2="103.7132" y2="87.5518">
		<stop  offset="0" style="stop-color:#F9AC1A"/>
		<stop  offset="1" style="stop-color:#F9C51A"/>
	</linearGradient>
	<path class="st3" d="M37.4,134.1V76.2h0c0.1-15.9,12.9-29,29.4-30.7c0.9-0.2,1.5-0.8,1.7-1.2c0.5-0.9,1-1.9,1.3-2.8
		c0.2-0.5,1.1-0.6,1.4,0c0.3,0.8,0.9,1.9,1.3,2.8c0.2,0.4,0.8,1,1.7,1.2c16.5,1.7,29.3,14.8,29.4,30.7h0v57.9H37.4z"/>
	<g>
		<defs>
			<path id="SVGID_2_" d="M37.4,134.1V76.2h0c0.1-15.9,12.9-29,29.4-30.7c0.9-0.2,1.5-0.8,1.7-1.2c0.5-0.9,1-1.9,1.3-2.8
				c0.2-0.5,1.1-0.6,1.4,0c0.3,0.8,0.9,1.9,1.3,2.8c0.2,0.4,0.8,1,1.7,1.2c16.5,1.7,29.3,14.8,29.4,30.7h0v57.9H37.4z"/>
		</defs>
		<clipPath id="SVGID_3_">
			<use xlink:href="#SVGID_2_"  style="overflow:visible;"/>
		</clipPath>
		<g class="st4">
			<path class="st5" d="M90.8,113c-4,0-5.2,1.6-5.2,4.5c0,5,6.1,10.8,6.1,19.9c0,6.6-3.9,12.2-12.5,12.2h-4v-8.1H77
				c3.1,0,4.2-1.8,4.2-4.8c0-6.7-3.7-12.8-3.7-17.9c0-5.1,1.7-7.5,7.8-8.8c-6.1-1.3-7.8-5.3-7.8-10.4c0-5,3.7-9.1,3.7-15.9
				c0-3-1.5-5.3-5.2-5.3c-1.4,0-2.5,0-3.5,0v-6.2c9.2-4.7,16.9,3.7,16.9,9.9c0,9-3.8,16-3.8,20.9c0,2.8,1.2,4.1,5.2,4.1h2.7v6H90.8z
				 M68.7,78.3c-0.9,0-2,0-3.2,0c-3.7,0-5.2,2.4-5.2,5.3c0,6.8,3.7,10.9,3.7,15.9c0,5.1-2,9.1-8.2,10.4c6.1,1.3,8.2,3.7,8.2,8.8
				c0,5-3.7,11.2-3.7,17.9c0,3,1.1,4.8,4.2,4.8h1.8v8.1h-4c-8.6,0-12.5-5.5-12.5-12.2c0-9.1,6.1-15,6.1-19.9c0-2.9-1-4.5-5-4.5h-3.3
				v-6h3.3c4,0,5-1.3,5-4.1c0-5-3.8-11.9-3.8-20.9c0-6.2,7.5-14.5,16.6-10V78.3z"/>
		</g>
	</g>
	<path class="st6" d="M102.8,137.9c-0.4,1-0.5,2.2-0.6,3.2c0,0,0,0,0,0.1v20.8c0,1.8-1.5,3.3-3.3,3.3H42.1c-1.8,0-3.3-1.5-3.3-3.3
		v-20.8c0,0,0,0,0-0.1c-0.1-1-0.2-2.2-0.6-3.2c-0.8-2.3-3.5-3.3-3.5-3.3l0.2-1.3h71.2l0.2,1.3C106.3,134.6,103.6,135.5,102.8,137.9z
		"/>
	<path class="st7" d="M102.3,149.5H80.1c-1.4,0-2.5-1.1-2.5-2.5c0-1.4,1.1-2.5,2.5-2.5h22.1V149.5z"/>
	<path class="st7" d="M38.9,144.5l22.1,0c1.4,0,2.5,1.1,2.5,2.5c0,1.4-1.1,2.5-2.5,2.5l-22.1,0L38.9,144.5z"/>
</g>
</svg>
